# xmcd CD database file
#
# Track frame offsets:
#	150
#	26335
#	62341
#	86462
#	113568
#	147404
#	168114
#	209224
#	244263
#	266016
#
# Disc length: 4090 seconds
#
# Revision: 3
# Processed by: cddbd v1.5.2PL0 Copyright (c) Steve Scherf et al.
# Submitted via: CDex 1.74
#
DISCID=850ff80a
DTITLE=Pat Metheny Trio - Day Trip
DYEAR=2008
DGENRE=Jazz
TTITLE0=Son Of Thirteen
TTITLE1=At Last You're Here
TTITLE2=Let's Move
TTITLE3=Snova
TTITLE4=Calvin's Keys
TTITLE5=Is This America?
TTITLE6=When We Were Free
TTITLE7=Dreaming Trees
TTITLE8=The Red One
TTITLE9=Day Trip
EXTD=YEAR: 2008
EXTT0=
EXTT1=
EXTT2=
EXTT3=
EXTT4=
EXTT5=
EXTT6=
EXTT7=
EXTT8=
EXTT9=
PLAYORDER=
